<?xml version="1.0" standalone="no"?>
<!DOCTYPE svg PUBLIC "-//W3C//DTD SVG 20010904//EN"
 "http://www.w3.org/TR/2001/REC-SVG-20010904/DTD/svg10.dtd">
<svg version="1.0" xmlns="http://www.w3.org/2000/svg"
 width="1024.000000pt" height="512.000000pt" viewBox="0 0 1024.000000 512.000000"
 preserveAspectRatio="xMidYMid meet">

<g transform="translate(0.000000,512.000000) scale(0.100000,-0.100000)"
fill="#000000" stroke="none">
<path d="M0 2760 l0 -2360 1680 0 1680 0 0 -200 0 -200 40 0 40 0 0 200 0 200
1680 0 1680 0 0 -200 0 -200 40 0 40 0 0 200 0 200 1680 0 1680 0 0 2360 0
2360 -5120 0 -5120 0 0 -2360z m1600 1920 l0 -120 -160 0 -160 0 0 -40 0 -40
160 0 160 0 0 -40 0 -40 -200 0 -200 0 0 120 0 120 160 0 160 0 0 40 0 40
-160 0 -160 0 0 40 0 40 200 0 200 0 0 -120z m8240 80 l0 -40 -160 0 -160 0 0
-120 0 -120 160 0 160 0 0 -40 0 -40 -200 0 -200 0 0 200 0 200 200 0 200 0 0
-40z m-9120 -80 l0 -40 -120 0 -120 0 0 -80 0 -80 120 0 120 0 0 -40 0 -40
-160 0 -160 0 0 160 0 160 160 0 160 0 0 -40z m400 -120 l0 -160 -160 0 -160
0 0 160 0 160 160 0 160 0 0 -160z m1360 0 l0 -160 -120 0 -120 0 0 -40 0 -40
-40 0 -40 0 0 200 0 200 160 0 160 0 0 -160z m400 0 l0 -160 -120 0 -120 0 0
-40 0 -40 -40 0 -40 0 0 200 0 200 160 0 160 0 0 -160z m480 0 l0 -160 -40 0
-40 0 0 120 0 120 -40 0 -40 0 0 -40 0 -40 -40 0 -40 0 0 40 0 40 -40 0 -40 0
0 -120 0 -120 -40 0 -40 0 0 160 0 160 200 0 200 0 0 -160z m4640 -320 l0
-240 -320 0 -320 0 0 -80 0 -80 320 0 320 0 0 -80 0 -80 -400 0 -400 0 0 240
0 240 320 0 320 0 0 80 0 80 -320 0 -320 0 0 80 0 80 400 0 400 0 0 -240z
m320 80 l0 -160 240 0 240 0 0 160 0 160 80 0 80 0 0 -400 0 -400 -80 0 -80 0
0 160 0 160 -320 0 -320 0 0 240 0 240 80 0 80 0 0 -160z m1520 -280 l0 -40
-160 0 -160 0 0 -40 0 -40 160 0 160 0 0 -120 0 -120 -200 0 -200 0 0 40 0 40
160 0 160 0 0 40 0 40 -160 0 -160 0 0 120 0 120 200 0 200 0 0 -40z m-560
-280 l0 -80 -80 0 -80 0 0 80 0 80 80 0 80 0 0 -80z m-8560 -1120 l0 -800
-160 0 -160 0 0 800 0 800 160 0 160 0 0 -800z m1920 320 l0 -480 -640 0 -640
0 0 -160 0 -160 640 0 640 0 0 -160 0 -160 -800 0 -800 0 0 480 0 480 640 0
640 0 0 160 0 160 -640 0 -640 0 0 160 0 160 800 0 800 0 0 -480z m1920 -320
l0 -800 -800 0 -800 0 0 160 0 160 640 0 640 0 0 160 0 160 -640 0 -640 0 0
160 0 160 640 0 640 0 0 160 0 160 -640 0 -640 0 0 160 0 160 800 0 800 0 0
-800z m1920 640 l0 -160 -640 0 -640 0 0 -160 0 -160 640 0 640 0 0 -480 0
-480 -800 0 -800 0 0 160 0 160 640 0 640 0 0 160 0 160 -640 0 -640 0 0 480
0 480 800 0 800 0 0 -160z m1520 -1760 l0 -80 -320 0 -320 0 0 -80 0 -80 320
0 320 0 0 -240 0 -240 -400 0 -400 0 0 400 0 400 400 0 400 0 0 -80z m960
-320 l0 -400 -400 0 -400 0 0 400 0 400 400 0 400 0 0 -400z m560 -40 l0 -40
-40 0 -40 0 0 40 0 40 40 0 40 0 0 -40z m320 0 l0 -40 -40 0 -40 0 0 -40 0
-40 -40 0 -40 0 0 -40 0 -40 -40 0 -40 0 0 -40 0 -40 -40 0 -40 0 0 -40 0 -40
-40 0 -40 0 0 40 0 40 40 0 40 0 0 40 0 40 40 0 40 0 0 40 0 40 40 0 40 0 0
40 0 40 40 0 40 0 0 40 0 40 40 0 40 0 0 -40z m0 -320 l0 -40 -40 0 -40 0 0
40 0 40 40 0 40 0 0 -40z"/>
<path d="M880 4560 l0 -80 80 0 80 0 0 80 0 80 -80 0 -80 0 0 -80z"/>
<path d="M2240 4560 l0 -80 80 0 80 0 0 80 0 80 -80 0 -80 0 0 -80z"/>
<path d="M2640 4560 l0 -80 80 0 80 0 0 80 0 80 -80 0 -80 0 0 -80z"/>
<path d="M7360 1040 l0 -80 240 0 240 0 0 80 0 80 -240 0 -240 0 0 -80z"/>
<path d="M8320 1200 l0 -240 240 0 240 0 0 240 0 240 -240 0 -240 0 0 -240z"/>
<path d="M3120 200 l0 -120 80 0 80 0 0 120 0 120 -80 0 -80 0 0 -120z"/>
<path d="M3520 200 l0 -120 1600 0 1600 0 0 120 0 120 -1600 0 -1600 0 0 -120z"/>
<path d="M6960 200 l0 -120 1600 0 1600 0 0 120 0 120 -1600 0 -1600 0 0 -120z"/>
</g>
</svg>
